<svg width="18" height="18" viewBox="0 0 18 18" fill="none" xmlns="http://www.w3.org/2000/svg">
<g clip-path="url(#clip0_276_7161)">
<circle cx="9" cy="9" r="9" fill="#999999"/>
<path fill-rule="evenodd" clip-rule="evenodd" d="M5.64645 5.64645C5.84171 5.45118 6.15829 5.45118 6.35355 5.64645L12.3536 11.6464C12.5488 11.8417 12.5488 12.1583 12.3536 12.3536C12.1583 12.5488 11.8417 12.5488 11.6464 12.3536L5.64645 6.35355C5.45118 6.15829 5.45118 5.84171 5.64645 5.64645Z" fill="white"/>
<path fill-rule="evenodd" clip-rule="evenodd" d="M12.3536 5.64645C12.5488 5.84171 12.5488 6.15829 12.3536 6.35355L6.35355 12.3536C6.15829 12.5488 5.84171 12.5488 5.64645 12.3536C5.45118 12.1583 5.45118 11.8417 5.64645 11.6464L11.6464 5.64645C11.8417 5.45118 12.1583 5.45118 12.3536 5.64645Z" fill="white"/>
</g>
<defs>
<clipPath id="clip0_276_7161">
<rect width="18" height="18" fill="white"/>
</clipPath>
</defs>
</svg>
