<svg width="18" height="16" viewBox="0 0 18 16" fill="none" xmlns="http://www.w3.org/2000/svg">
<mask id="path-1-inside-1_348_7964" fill="white">
<path d="M9.61655 1.49849L9 2.1408L8.38346 1.4985C6.46563 -0.499481 3.35621 -0.499483 1.43838 1.4985C-0.42795 3.44282 -0.485295 6.57627 1.30854 8.5933L6.46223 14.3882C7.14681 15.158 8.07341 16 9 16C9.92659 16 10.8532 15.158 11.5377 14.3882L16.6915 8.59327C18.4853 6.57624 18.4279 3.4428 16.5616 1.49848C14.6438 -0.499495 11.5344 -0.499493 9.61655 1.49849Z"/>
</mask>
<path d="M9 2.1408L7.91786 3.17953L9 4.3069L10.0821 3.17953L9 2.1408ZM9.61655 1.49849L8.53441 0.459752V0.459753L9.61655 1.49849ZM8.38346 1.4985L9.46561 0.459767L8.38346 1.4985ZM1.30854 8.5933L2.4294 7.59646L1.30854 8.5933ZM6.46223 14.3882L5.34137 15.3851L6.46223 14.3882ZM11.5377 14.3882L12.6586 15.3851L11.5377 14.3882ZM16.6915 8.59327L17.8123 9.5901L16.6915 8.59327ZM16.5616 1.49848L15.4795 2.53721L16.5616 1.49848ZM1.43838 1.4985L2.52052 2.53723L1.43838 1.4985ZM9 16L8.99999 14.5L9 16ZM10.0821 3.17953L10.6987 2.53722L8.53441 0.459753L7.91786 1.10207L10.0821 3.17953ZM7.30132 2.53723L7.91786 3.17953L10.0821 1.10207L9.46561 0.459767L7.30132 2.53723ZM0.187676 9.59013L5.34137 15.3851L7.58309 13.3914L2.4294 7.59646L0.187676 9.59013ZM12.6586 15.3851L17.8123 9.5901L15.5706 7.59643L10.4169 13.3914L12.6586 15.3851ZM15.4795 2.53721C16.8026 3.91558 16.8457 6.16269 15.5706 7.59643L17.8123 9.5901C20.1249 6.98979 20.0533 2.97003 17.6438 0.459748L15.4795 2.53721ZM17.6438 0.459748C15.1356 -2.15325 11.0426 -2.15325 8.53441 0.459752L10.6987 2.53722C12.0262 1.15426 14.152 1.15426 15.4795 2.53721L17.6438 0.459748ZM2.52052 2.53723C3.848 1.15427 5.97384 1.15427 7.30132 2.53723L9.46561 0.459767C6.95743 -2.15324 2.86442 -2.15324 0.356236 0.459764L2.52052 2.53723ZM0.356236 0.459764C-2.05335 2.97005 -2.12489 6.98982 0.187676 9.59013L2.4294 7.59646C1.1543 6.16272 1.19745 3.9156 2.52052 2.53723L0.356236 0.459764ZM5.34137 15.3851C5.71698 15.8074 6.20672 16.3055 6.77337 16.7068C7.32337 17.0964 8.09271 17.5 9.00001 17.5L8.99999 14.5C8.98069 14.5 8.82344 14.4826 8.50735 14.2587C8.20791 14.0466 7.89206 13.7388 7.58309 13.3914L5.34137 15.3851ZM9.00001 17.5C9.90729 17.5 10.6766 17.0964 11.2266 16.7068C11.7933 16.3055 12.283 15.8074 12.6586 15.3851L10.4169 13.3914C10.1079 13.7388 9.79207 14.0466 9.49263 14.2587C9.17654 14.4826 9.01929 14.5 8.99999 14.5L9.00001 17.5Z" fill="#999999" mask="url(#path-1-inside-1_348_7964)"/>
</svg>
