<svg width="24" height="24" viewBox="0 0 24 24" fill="none" xmlns="http://www.w3.org/2000/svg">
<g clip-path="url(#clip0_348_8110)">
<path fill-rule="evenodd" clip-rule="evenodd" d="M12 8.25C12.4142 8.25 12.75 8.58579 12.75 9V12.0033L15.3422 13.3326C15.7108 13.5216 15.8564 13.9737 15.6674 14.3422C15.4784 14.7108 15.0263 14.8564 14.6578 14.6674L11.25 12.9198V9C11.25 8.58579 11.5858 8.25 12 8.25Z" fill="#999999"/>
<path d="M2.11796 12.4328L4.15227 14.4672C4.30848 14.6234 4.56175 14.6234 4.71796 14.4672L6.75227 12.4328C7.00373 12.1814 6.82654 11.7518 6.47168 11.75H5.18512C5.18512 10.0238 5.80106 8.35416 6.92217 7.04152C8.04328 5.72887 9.59597 4.85932 11.301 4.58928C13.006 4.31923 14.7514 4.66642 16.2232 5.56838C17.6951 6.47034 18.7968 7.86788 19.3303 9.50964C19.8637 11.1514 19.7938 12.9296 19.1332 14.5245C18.4726 16.1193 17.2646 17.4261 15.7265 18.2098C14.1884 18.9935 12.4212 19.2027 10.7426 18.7997C9.88341 18.5934 9.07632 18.2337 8.35699 17.7443C8.01452 17.5113 7.54801 17.6 7.31502 17.9425C7.08202 18.285 7.17077 18.7515 7.51324 18.9845C8.38135 19.5751 9.35548 20.0093 10.3925 20.2582C12.4183 20.7446 14.5512 20.4921 16.4075 19.5463C18.2639 18.6005 19.7218 17.0233 20.5191 15.0985C21.3163 13.1737 21.4007 11.0275 20.7569 9.04611C20.1131 7.06468 18.7834 5.37799 17.007 4.28942C15.2306 3.20084 13.1241 2.78183 11.0663 3.10775C9.00856 3.43366 7.13463 4.48311 5.78156 6.06734C4.4285 7.65157 3.68512 9.66661 3.68512 11.75L2.4008 11.75C2.04444 11.75 1.86597 12.1809 2.11796 12.4328Z" fill="#999999"/>
</g>
<defs>
<clipPath id="clip0_348_8110">
<rect width="24" height="24" fill="white"/>
</clipPath>
</defs>
</svg>
