<svg width="18" height="20" viewBox="0 0 18 20" fill="none" xmlns="http://www.w3.org/2000/svg">
<path fill-rule="evenodd" clip-rule="evenodd" d="M8.55 0.4C8.81667 0.2 9.18333 0.2 9.45 0.4L17.45 6.4C17.6389 6.54164 17.75 6.76393 17.75 7V19C17.75 19.4142 17.4142 19.75 17 19.75H12C11.5858 19.75 11.25 19.4142 11.25 19V12.75H6.75V19C6.75 19.4142 6.41421 19.75 6 19.75H1C0.585786 19.75 0.25 19.4142 0.25 19V7C0.25 6.76393 0.361146 6.54164 0.55 6.4L8.55 0.4ZM1.75 7.375V18.25H5.25V12C5.25 11.5858 5.58579 11.25 6 11.25H12C12.4142 11.25 12.75 11.5858 12.75 12V18.25H16.25V7.375L9 1.9375L1.75 7.375Z" fill="#999999"/>
</svg>
