<svg width="24" height="24" viewBox="0 0 24 24" fill="none" xmlns="http://www.w3.org/2000/svg">
<mask id="path-1-inside-1_173_4246" fill="white">
<path d="M12.6165 5.49848L12 6.1408L11.3835 5.4985C9.46563 3.50052 6.35621 3.50052 4.43838 5.4985C2.57205 7.44282 2.5147 10.5763 4.30854 12.5933L9.46223 18.3882C10.1468 19.158 11.0734 20 12 20C12.9266 20 13.8532 19.158 14.5377 18.3882L19.6915 12.5933C21.4853 10.5762 21.4279 7.4428 19.5616 5.49848C17.6438 3.5005 14.5344 3.50051 12.6165 5.49848Z"/>
</mask>
<path d="M12 6.1408L10.9179 7.17953L12 8.3069L13.0821 7.17953L12 6.1408ZM12.6165 5.49848L13.6987 6.53722V6.53722L12.6165 5.49848ZM11.3835 5.4985L12.4656 4.45977V4.45977L11.3835 5.4985ZM4.30854 12.5933L3.18768 13.5901L4.30854 12.5933ZM9.46223 18.3882L8.34137 19.3851L9.46223 18.3882ZM14.5377 18.3882L15.6586 19.3851L14.5377 18.3882ZM19.6915 12.5933L20.8123 13.5901L19.6915 12.5933ZM19.5616 5.49848L18.4795 6.53721L19.5616 5.49848ZM4.43838 5.4985L5.52052 6.53723L4.43838 5.4985ZM12 20L12 18.5L12 20ZM13.0821 7.17953L13.6987 6.53722L11.5344 4.45975L10.9179 5.10207L13.0821 7.17953ZM10.3013 6.53723L10.9179 7.17953L13.0821 5.10207L12.4656 4.45977L10.3013 6.53723ZM3.18768 13.5901L8.34137 19.3851L10.5831 17.3914L5.4294 11.5965L3.18768 13.5901ZM15.6586 19.3851L20.8123 13.5901L18.5706 11.5964L13.4169 17.3914L15.6586 19.3851ZM18.4795 6.53721C19.8026 7.91558 19.8457 10.1627 18.5706 11.5964L20.8123 13.5901C23.1249 10.9898 23.0533 6.97003 20.6438 4.45975L18.4795 6.53721ZM20.6438 4.45975C18.1356 1.84675 14.0426 1.84675 11.5344 4.45975L13.6987 6.53722C15.0262 5.15426 17.152 5.15426 18.4795 6.53721L20.6438 4.45975ZM5.52052 6.53723C6.848 5.15427 8.97384 5.15427 10.3013 6.53723L12.4656 4.45977C9.95743 1.84676 5.86442 1.84676 3.35624 4.45976L5.52052 6.53723ZM3.35624 4.45976C0.946652 6.97005 0.875107 10.9898 3.18768 13.5901L5.4294 11.5965C4.1543 10.1627 4.19745 7.9156 5.52052 6.53723L3.35624 4.45976ZM8.34137 19.3851C8.71698 19.8074 9.20672 20.3055 9.77337 20.7068C10.3234 21.0964 11.0927 21.5 12 21.5L12 18.5C11.9807 18.5 11.8234 18.4826 11.5074 18.2587C11.2079 18.0466 10.8921 17.7388 10.5831 17.3914L8.34137 19.3851ZM12 21.5C12.9073 21.5 13.6766 21.0964 14.2266 20.7068C14.7933 20.3055 15.283 19.8074 15.6586 19.3851L13.4169 17.3914C13.1079 17.7388 12.7921 18.0466 12.4926 18.2587C12.1765 18.4826 12.0193 18.5 12 18.5L12 21.5Z" fill="#999999" mask="url(#path-1-inside-1_173_4246)"/>
</svg>
