<svg width="24" height="24" viewBox="0 0 24 24" fill="none" xmlns="http://www.w3.org/2000/svg">
<path d="M11.6165 4.49848L11 5.1408L10.3835 4.4985C8.46563 2.50052 5.35621 2.50052 3.43838 4.4985C1.57205 6.44282 1.5147 9.57627 3.30854 11.5933L8.46223 17.3882C9.14681 18.158 10.0734 19 11 19C11.9266 19 12.8532 18.158 13.5377 17.3882L18.6915 11.5933C20.4853 9.57624 20.4279 6.4428 18.5616 4.49848C16.6438 2.5005 13.5344 2.50051 11.6165 4.49848Z" fill="#DED4FF"/>
<path d="M14.6165 7.49848L14 8.1408L13.3835 7.4985C11.4656 5.50052 8.35621 5.50052 6.43838 7.4985C4.57205 9.44282 4.5147 12.5763 6.30854 14.5933L11.4622 20.3882C12.1468 21.158 13.0734 22 14 22C14.9266 22 15.8532 21.158 16.5377 20.3882L21.6915 14.5933C23.4853 12.5762 23.4279 9.4428 21.5616 7.49848C19.6438 5.5005 16.5344 5.50051 14.6165 7.49848Z" fill="#6D48FF"/>
</svg>
