<svg width="24" height="24" viewBox="0 0 24 24" fill="none" xmlns="http://www.w3.org/2000/svg">
<path d="M12.0823 5.40483L11.5 6.007L10.9177 5.40484C9.10643 3.53174 6.16975 3.53173 4.35847 5.40484C2.59582 7.22765 2.54167 10.1653 4.23584 12.0562L9.10322 17.489C9.74976 18.2106 10.6249 19 11.5 19C12.3751 19 13.2502 18.2106 13.8968 17.489L18.7642 12.0562C20.4583 10.1652 20.4042 7.22763 18.6415 5.40483C16.8303 3.53172 13.8936 3.53172 12.0823 5.40483Z" fill="#DED4FF"/>
<path d="M14.6165 7.49848L14 8.1408L13.3835 7.4985C11.4656 5.50052 8.35621 5.50052 6.43838 7.4985C4.57205 9.44282 4.5147 12.5763 6.30854 14.5933L11.4622 20.3882C12.1468 21.158 13.0734 22 14 22C14.9266 22 15.8532 21.158 16.5377 20.3882L21.6915 14.5933C23.4853 12.5762 23.4279 9.4428 21.5616 7.49848C19.6438 5.5005 16.5344 5.50051 14.6165 7.49848Z" fill="#6D48FF"/>
</svg>
